<?xml version="1.0" standalone="no"?>
<!DOCTYPE svg PUBLIC "-//W3C//DTD SVG 20010904//EN"
 "http://www.w3.org/TR/2001/REC-SVG-20010904/DTD/svg10.dtd">
<svg version="1.0" xmlns="http://www.w3.org/2000/svg"
 width="500.000000pt" height="500.000000pt" viewBox="0 0 500.000000 500.000000"
 preserveAspectRatio="xMidYMid meet">
<metadata>
Created by potrace 1.14, written by Peter Selinger 2001-2017
</metadata>
<g transform="translate(0.000000,500.000000) scale(0.100000,-0.100000)"
fill="#000000" stroke="none">
<path d="M0 2500 l0 -2500 2500 0 2500 0 0 2500 0 2500 -2500 0 -2500 0 0
-2500z m2695 2160 c510 -48 973 -266 1336 -629 248 -248 416 -518 525 -846
198 -596 129 -1246 -189 -1788 -178 -301 -463 -586 -764 -764 -378 -222 -830
-328 -1255 -295 -536 42 -1004 256 -1379 631 -248 248 -416 518 -525 846 -198
596 -129 1246 189 1788 178 301 463 586 764 764 391 229 855 334 1298 293z"/>
<path d="M2256 3949 c-507 -65 -962 -417 -1156 -894 -83 -202 -116 -396 -106
-620 9 -212 54 -391 147 -584 40 -82 41 -87 30 -134 -9 -42 -9 -54 4 -73 13
-20 24 -24 63 -24 42 0 51 -4 71 -31 110 -148 336 -328 520 -411 635 -290
1360 -112 1782 437 182 237 282 515 295 820 10 224 -23 418 -104 618 -28 67
-36 97 -27 97 8 0 19 29 30 78 9 42 25 113 34 157 16 72 16 83 3 103 -14 21
-20 22 -176 22 l-162 0 -35 36 c-48 51 -181 154 -264 204 -272 167 -623 240
-949 199z m461 -128 c179 -37 334 -102 481 -201 48 -33 101 -71 117 -85 l30
-25 -206 0 c-206 0 -207 0 -212 -22 -3 -13 -92 -429 -198 -926 -185 -871 -191
-903 -174 -922 17 -19 32 -20 200 -20 l181 0 79 373 c43 204 80 378 83 385 3
9 54 12 208 12 203 0 204 0 209 23 3 12 18 83 34 157 41 191 52 180 -184 180
-104 0 -185 4 -185 9 0 9 66 325 77 369 l5 22 187 -2 186 -3 27 -55 c44 -89
86 -213 110 -322 31 -146 31 -390 0 -535 -59 -272 -176 -488 -371 -684 -196
-195 -412 -312 -684 -371 -145 -31 -389 -31 -534 0 -260 56 -479 172 -667 353
l-91 88 197 1 c235 0 318 13 419 66 106 56 187 158 233 298 10 27 63 261 119
520 97 448 102 477 102 591 0 104 -3 127 -23 170 -37 81 -71 123 -134 165
-104 69 -125 73 -472 79 l-309 6 81 60 c197 145 407 231 647 264 106 15 314 6
432 -18z m-1328 -1087 c-89 -417 -165 -763 -169 -767 -11 -12 -66 148 -92 265
-31 146 -31 390 0 535 54 252 169 472 341 655 40 43 75 77 77 75 2 -2 -69
-345 -157 -763z m687 383 c13 -15 24 -38 24 -51 0 -30 -197 -961 -212 -1004
-24 -64 -48 -77 -159 -80 -80 -3 -98 -1 -94 10 5 16 245 1142 245 1153 0 4 39
5 86 4 79 -4 87 -6 110 -32z"/>
</g>
</svg>
